{"title":"The Strain S03E01 New York Strong 720p AMZN WEBRip HEVC 2CH x265","uid":15703965,"size":344027109,"categoryP":"video","categoryS":"hd___tv_shows","magnet":"?xt=urn:btih:b8f5c959f9391c856bd8036811e04c6749592028&amp;dn=The+Strain+S03E01+New+York+Strong+720p+AMZN+WEBRip+HEVC+2CH+x265&amp;tr=udp%3A%2F%2Ftracker.leechers-paradise.org%3A6969&amp;tr=udp%3A%2F%2Fzer0day.ch%3A1337&amp;tr=udp%3A%2F%2Fopen.demonii.com%3A1337&amp;tr=udp%3A%2F%2Ftracker.coppersurfer.tk%3A6969&amp;tr=udp%3A%2F%2Fexodus.desync.com%3A6969","seeders":0,"leechers":2,"uploader":"nayhtut","files":1,"time":1472510426,"description":"[Screenshots]\r\n \nhttps://s18.postimg.org/a6c67bz21/The_Strain_S03_E01_New_York_Strong_720p_AMZN_WEBR.jpg \nhttps://s18.postimg.org/l77bccrax/The_Strain_S03_E01_New_York_Strong_720p_AMZN_WEBR.jpg \nhttps://s18.postimg.org/dshzjz5fd/The_Strain_S03_E01_New_York_Strong_720p_AMZN_WEBR.jpg\r\n\r\n\r\nSource:  The Strain S03E01 New York Strong 1080p AMZN WEBRip DD5 1 x264-NTb (3.33 GB)\r\n \r\n\r\n__--__--__--__--__--__--__--__--__--__--__--__--__--\r\n\r\n\r\nComplete name                            : The.Strain.S03E01.New.York.Strong.720p.AMZN.WEBRip.HEVC.2CH.x265.mkv\r\nFormat                                   : Matroska\r\nFormat version                           : Version 4 / Version 2\r\nFile size                                : 328 MiB\r\nDuration                                 : 44mn 38s\r\nOverall bit rate                         : 1 027 Kbps\r\nWriting application                      : Lavf57.25.100\r\nWriting library                          : Lavf57.25.100\r\n\r\nVideo\r\n\r\nID                                       : 1\r\nFormat                                   : V_MPEGH/ISO/HEVC\r\nCodec ID                                 : V_MPEGH/ISO/HEVC\r\nDuration                                 : 44mn 38s\r\nBit rate                                 : 815 Kbps\r\nWidth                                    : 1 274 pixels\r\nHeight                                   : 720 pixels\r\nDisplay aspect ratio                     : 16:9\r\nFrame rate                               : 25.000 fps\r\nBits/(Pixel*Frame)                       : 0.036\r\nStream size                              : 260 MiB (79%)\r\nWriting library                          : Lavc57.48.101 libx265\r\nDefault                                  : Yes\r\nForced                                   : No\r\nDURATION                                 : 00:44:38.771000000\r\nNUMBER_OF_FRAMES                         : 64225\r\nNUMBER_OF_BYTES                          : 3039562076\r\n_STATISTICS_WRITING_APP                  : mkvmerge v9.3.1 ('Mask Machine') 64bit\r\n_STATISTICS_WRITING_DATE_UTC             : 2016-08-29 13:33:51\r\n_STATISTICS_TAGS                         : BPS DURATION NUMBER_OF_FRAMES NUMBER_OF_BYTES\r\n\r\nAudio\r\n\r\nID                                       : 2\r\nFormat                                   : AC-3\r\nFormat/Info                              : Audio Coding 3\r\nMode extension                           : CM (complete main)\r\nFormat settings, Endianness              : Big\r\nCodec ID                                 : A_AC3\r\nDuration                                 : 44mn 38s\r\nBit rate mode                            : Constant\r\nBit rate                                 : 192 Kbps\r\nChannel(s)                               : 2 channels\r\nChannel positions                        : Front: L R\r\nSampling rate                            : 48.0 KHz\r\nBit depth                                : 16 bits\r\nCompression mode                         : Lossy\r\nStream size                              : 61.3 MiB (19%)\r\nWriting library                          : Lavc57.24.102 ac3\r\nDefault                                  : Yes\r\nForced                                   : No\r\nDURATION                                 : 00:44:38.751000000\r\nNUMBER_OF_FRAMES                         : 83709\r\nNUMBER_OF_BYTES                          : 214295040\r\n_STATISTICS_WRITING_APP                  : mkvmerge v9.3.1 ('Mask Machine') 64bit\r\n_STATISTICS_WRITING_DATE_UTC             : 2016-08-29 13:33:51\r\n_STATISTICS_TAGS                         : BPS DURATION NUMBER_OF_FRAMES NUMBER_OF_BYTES\r\n\r\nText\r\n\r\nID                                       : 3\r\nFormat                                   : ASS\r\nCodec ID                                 : S_TEXT/ASS\r\nCodec ID/Info                            : Advanced Sub Station Alpha\r\nCompression mode                         : Lossless\r\nWriting library                          : Lavc57.48.101 ssa\r\nDefault                                  : Yes\r\nForced                                   : No\r\nDURATION                                 : 00:44:34.056000000\r\nNUMBER_OF_FRAMES                         : 584\r\nNUMBER_OF_BYTES                          : 17615\r\n_STATISTICS_WRITING_APP                  : mkvmerge v9.3.1 ('Mask Machine') 64bit\r\n_STATISTICS_WRITING_DATE_UTC             : 2016-08-29 13:33:51\r\n_STATISTICS_TAGS                         : BPS DURATION NUMBER_OF_FRAMES NUMBER_OF_BYTES\r\n\r\n__--__--__--__--__--__--__--__--__--__--__--__--__--\r\n\r\n\r\nIMDb: http://www.imdb.com/title/tt2654620\r\n\r\n\r\n__--__--__--__--__--__--__--__--__--__--__--__--__--\r\n\r\n\r\nAfter adding torrent with maget link,\r\n\r\nplease add this  following trackers list to the torrent for better seeds.\r\n\r\n\r\nudp://tracker.coppersurfer.tk:6969/announce\r\n\r\nudp://tracker.opentrackr.org:1337/announce\r\n \nhttp://tracker.baravik.org:6970/announce\r\n \nhttp://tracker2.wasabii.com.tw:6969/announce\r\n\r\nudp://9.rarbg.me:2710/announce\r\n\r\n\r\n__--__--__--__--__--__--__--__--__--__--__--__--__--\r\n\r\n Enjoy!","torrent":{"xt":"urn:btih:b8f5c959f9391c856bd8036811e04c6749592028","amp;dn":"The+Strain+S03E01+New+York+Strong+720p+AMZN+WEBRip+HEVC+2CH+x265","amp;tr":["udp%3A%2F%2Ftracker.leechers-paradise.org%3A6969","udp%3A%2F%2Fzer0day.ch%3A1337","udp%3A%2F%2Fopen.demonii.com%3A1337","udp%3A%2F%2Ftracker.coppersurfer.tk%3A6969","udp%3A%2F%2Fexodus.desync.com%3A6969"],"infoHash":"b8f5c959f9391c856bd8036811e04c6749592028","infoHashBuffer":{"type":"Buffer","data":[184,245,201,89,249,57,28,133,107,216,3,104,17,224,76,103,73,89,32,40]},"announce":[],"urlList":[]}}